<svg width="98" height="98" viewBox="0 0 98 98" fill="none" xmlns="http://www.w3.org/2000/svg"><path d="M3.14999 49.07H94.3" stroke="#88FFA4" stroke-width="5.82" stroke-miterlimit="10"></path><path d="M94.3099 49.07C94.3099 58.0849 91.6368 66.8973 86.6284 74.3929C81.62 81.8885 74.5013 87.7306 66.1727 91.1804C57.844 94.6303 48.6794 95.5329 39.8378 93.7742C30.9961 92.0155 22.8745 87.6744 16.5001 81.2999C10.1256 74.9255 5.78448 66.8039 4.02576 57.9622C2.26705 49.1206 3.16967 39.9559 6.61951 31.6273C10.0694 23.2986 15.9115 16.18 23.4071 11.1716C30.9027 6.16324 39.7151 3.49 48.73 3.49C54.7156 3.49 60.6427 4.66893 66.1727 6.95954C71.7027 9.25015 76.7274 12.6076 80.9599 16.8401C85.1924 21.0726 88.5498 26.0972 90.8404 31.6273C93.131 37.1573 94.3099 43.0844 94.3099 49.07V49.07Z" stroke="#88FFA4" stroke-width="5.82" stroke-miterlimit="10"></path><path d="M70.6 49.07C70.6 74.24 60.81 94.64 48.73 94.64C36.65 94.64 26.87 74.24 26.87 49.07C26.87 23.9 36.66 3.49 48.73 3.49C60.8 3.49 70.6 23.9 70.6 49.07Z" stroke="#88FFA4" stroke-width="5.82" stroke-miterlimit="10"></path><path d="M48.73 3.49V94.64" stroke="#88FFA4" stroke-width="5.82" stroke-miterlimit="10"></path><path d="M94.31 49.07C94.31 60.59 73.9 69.94 48.73 69.94C23.56 69.94 3.16 60.59 3.16 49.07C3.16 37.55 23.56 28.19 48.73 28.19C73.9 28.19 94.31 37.54 94.31 49.07Z" stroke="#88FFA4" stroke-width="5.82" stroke-miterlimit="10"></path></svg>