<svg width="293" height="391" viewBox="0 0 293 391" fill="none" xmlns="http://www.w3.org/2000/svg">
<rect width="293" height="391" fill="#CF8BFC"/>
<path d="M89.5 58.25L51 58.25" stroke="#F9D366" stroke-width="15" stroke-linecap="round"/>
<path d="M70.25 77.5L70.25 39" stroke="#F9D366" stroke-width="15" stroke-linecap="round"/>
<path d="M240.5 337.25L202 337.25" stroke="#F9D366" stroke-width="15" stroke-linecap="round"/>
<path d="M221.25 356.5L221.25 318" stroke="#F9D366" stroke-width="15" stroke-linecap="round"/>
<path fill-rule="evenodd" clip-rule="evenodd" d="M236.803 181.123C230.906 211.814 203.911 235 171.5 235C134.773 235 105 205.227 105 168.5C105 137.846 125.741 112.036 153.954 104.339C151.333 104.115 148.68 104 146 104C95.1898 104 54 145.19 54 196C54 246.81 95.1898 288 146 288C196.81 288 238 246.81 238 196C238 190.935 237.591 185.966 236.803 181.123Z" fill="#F9D366"/>
</svg>
