<svg width="206" height="333" viewBox="0 0 206 333" fill="none" xmlns="http://www.w3.org/2000/svg">
<mask id="path-1-inside-1_262_35" fill="white">
<path fill-rule="evenodd" clip-rule="evenodd" d="M107.765 51.5C105.841 48.1667 101.03 48.1667 99.1052 51.5L68.0726 105.25L6.00748 105.25C2.15847 105.25 -0.247154 109.417 1.67735 112.75L32.7099 166.5L1.67733 220.25C-0.247168 223.583 2.15845 227.75 6.00746 227.75H68.0726L99.1052 281.5C101.03 284.833 105.841 284.833 107.765 281.5L138.798 227.75H200.863C204.712 227.75 207.118 223.583 205.193 220.25L174.161 166.5L205.193 112.75C207.118 109.417 204.712 105.25 200.863 105.25L138.798 105.25L107.765 51.5Z"/>
</mask>
<path fill-rule="evenodd" clip-rule="evenodd" d="M107.765 51.5C105.841 48.1667 101.03 48.1667 99.1052 51.5L68.0726 105.25L6.00748 105.25C2.15847 105.25 -0.247154 109.417 1.67735 112.75L32.7099 166.5L1.67733 220.25C-0.247168 223.583 2.15845 227.75 6.00746 227.75H68.0726L99.1052 281.5C101.03 284.833 105.841 284.833 107.765 281.5L138.798 227.75H200.863C204.712 227.75 207.118 223.583 205.193 220.25L174.161 166.5L205.193 112.75C207.118 109.417 204.712 105.25 200.863 105.25L138.798 105.25L107.765 51.5Z" fill="black"/>
<path d="M99.1052 51.5L112.096 59L112.096 59L99.1052 51.5ZM107.765 51.5L94.7751 59L94.7751 59L107.765 51.5ZM68.0726 105.25L68.0726 120.25C73.4316 120.25 78.3835 117.391 81.063 112.75L68.0726 105.25ZM6.00748 105.25L6.00748 90.25H6.00748V105.25ZM1.67735 112.75L14.6677 105.25L14.6677 105.25L1.67735 112.75ZM32.7099 166.5L45.7003 174C48.3798 169.359 48.3798 163.641 45.7003 159L32.7099 166.5ZM1.67733 220.25L14.6677 227.75L14.6677 227.75L1.67733 220.25ZM68.0726 227.75L81.063 220.25C78.3835 215.609 73.4316 212.75 68.0726 212.75V227.75ZM99.1052 281.5L112.096 274L112.096 274L99.1052 281.5ZM107.765 281.5L120.756 289L120.756 289L107.765 281.5ZM138.798 227.75V212.75C133.439 212.75 128.487 215.609 125.808 220.25L138.798 227.75ZM205.193 220.25L192.203 227.75L192.203 227.75L205.193 220.25ZM174.161 166.5L161.17 159C158.491 163.641 158.491 169.359 161.17 174L174.161 166.5ZM205.193 112.75L218.184 120.25L218.184 120.25L205.193 112.75ZM200.863 105.25L200.863 90.25L200.863 90.25L200.863 105.25ZM138.798 105.25L125.808 112.75C128.487 117.391 133.439 120.25 138.798 120.25L138.798 105.25ZM112.096 59C108.247 65.6667 98.624 65.6666 94.7751 59L120.756 44C113.058 30.6667 93.8128 30.6666 86.1148 44L112.096 59ZM81.063 112.75L112.096 59L86.1148 44L55.0822 97.75L81.063 112.75ZM6.00748 120.25L68.0726 120.25L68.0726 90.25L6.00748 90.25L6.00748 120.25ZM14.6677 105.25C18.5167 111.917 13.7055 120.25 6.00748 120.25V90.25C-9.38851 90.25 -19.0111 106.917 -11.313 120.25L14.6677 105.25ZM45.7003 159L14.6677 105.25L-11.313 120.25L19.7195 174L45.7003 159ZM14.6677 227.75L45.7003 174L19.7195 159L-11.313 212.75L14.6677 227.75ZM6.00746 212.75C13.7055 212.75 18.5167 221.083 14.6677 227.75L-11.313 212.75C-19.011 226.083 -9.38857 242.75 6.00746 242.75V212.75ZM68.0726 212.75H6.00746V242.75H68.0726V212.75ZM112.096 274L81.063 220.25L55.0822 235.25L86.1148 289L112.096 274ZM94.7751 274C98.6241 267.333 108.247 267.333 112.096 274L86.1148 289C93.8128 302.333 113.058 302.333 120.756 289L94.7751 274ZM125.808 220.25L94.7751 274L120.756 289L151.788 235.25L125.808 220.25ZM200.863 212.75H138.798V242.75H200.863V212.75ZM192.203 227.75C188.354 221.083 193.165 212.75 200.863 212.75V242.75C216.259 242.75 225.882 226.083 218.184 212.75L192.203 227.75ZM161.17 174L192.203 227.75L218.184 212.75L187.151 159L161.17 174ZM192.203 105.25L161.17 159L187.151 174L218.184 120.25L192.203 105.25ZM200.863 120.25C193.165 120.25 188.354 111.917 192.203 105.25L218.184 120.25C225.882 106.917 216.259 90.25 200.863 90.25L200.863 120.25ZM138.798 120.25L200.863 120.25L200.863 90.25L138.798 90.25L138.798 120.25ZM94.7751 59L125.808 112.75L151.788 97.75L120.756 44L94.7751 59Z" fill="#88FFA4" mask="url(#path-1-inside-1_262_35)"/>
<line x1="145.435" y1="112.5" x2="68.4353" y2="112.5" stroke="#88FFA4" stroke-width="15" stroke-linecap="round"/>
<line x1="133.435" y1="220.5" x2="72.4353" y2="220.5" stroke="#88FFA4" stroke-width="15" stroke-linecap="round"/>
<line x1="164.69" y1="164.073" x2="134.19" y2="111.245" stroke="#88FFA4" stroke-width="15" stroke-linecap="round"/>
<line x1="69.6901" y1="216.073" x2="39.1901" y2="163.245" stroke="#88FFA4" stroke-width="15" stroke-linecap="round"/>
<line x1="134.19" y1="217.573" x2="164.69" y2="164.745" stroke="#88FFA4" stroke-width="15" stroke-linecap="round"/>
<line x1="43.1901" y1="164.573" x2="73.6901" y2="111.745" stroke="#88FFA4" stroke-width="15" stroke-linecap="round"/>
<path d="M46.5 27.25L8 27.25" stroke="#88FFA4" stroke-width="15" stroke-linecap="round"/>
<path d="M27.25 46.5L27.25 8" stroke="#88FFA4" stroke-width="15" stroke-linecap="round"/>
<path d="M197.5 306.25L159 306.25" stroke="#88FFA4" stroke-width="15" stroke-linecap="round"/>
<path d="M178.25 325.5L178.25 287" stroke="#88FFA4" stroke-width="15" stroke-linecap="round"/>
</svg>
