<svg width="241" height="241" viewBox="0 0 241 241" fill="none" xmlns="http://www.w3.org/2000/svg">
<path d="M121 58.5004C102 4.5 30.3584 25.2151 30.2601 85.7583C30.3584 162.451 118.628 213.552 118.628 213.552L122.559 213.552C122.559 213.552 210.652 162.242 210.553 85.4656C210.455 8.68905 124 21.5003 121 58.5004Z" fill="#88FFA4"/>
<path d="M120.016 84.7533C119.929 31.7486 39.9211 18.5345 40.0084 86.6092C40.0956 154.684 118.446 200.042 118.446 200.042H121.936C121.936 200.042 200.129 154.498 200.042 86.3494C199.954 18.2004 119.929 31.7486 120.016 84.7533Z" fill="#88FFA4" stroke="black" stroke-width="5" stroke-miterlimit="10"/>
<path d="M79.4555 81.9729H73.6805V126.028H103.656V120.803H79.4555V81.9729Z" fill="black"/>
<path d="M163.12 116.803C176.485 116.803 186.33 107.068 186.33 93.758C186.33 80.448 176.43 70.713 163.065 70.713C149.7 70.713 139.855 80.448 139.855 93.758C139.855 107.068 149.755 116.803 163.12 116.803ZM163.12 111.523C153.055 111.523 145.63 104.098 145.63 93.758C145.63 83.363 153 75.993 163.065 75.993C173.13 75.993 180.555 83.363 180.555 93.758C180.555 104.098 173.13 111.523 163.12 111.523Z" fill="black"/>
<path d="M126.398 124.535L110.833 161.77L95.2679 124.535H88.9429L107.588 168.59H113.858L132.503 124.535H126.398Z" fill="black"/>
<path d="M138.375 114.321V158.376H170.165V153.261H144.15V138.411H167.745V133.296H144.15V119.436H169.67V114.321H138.375Z" fill="black"/>
</svg>
